<?xml version="1.0" encoding="UTF-8" standalone="no"?><!DOCTYPE svg PUBLIC "-//W3C//DTD SVG 1.1//EN" "http://www.w3.org/Graphics/SVG/1.1/DTD/svg11.dtd"><svg width="100%" height="100%" viewBox="0 0 748 148" version="1.1" xmlns="http://www.w3.org/2000/svg" xmlns:xlink="http://www.w3.org/1999/xlink" xml:space="preserve" xmlns:serif="http://www.serif.com/" style="fill-rule:evenodd;clip-rule:evenodd;stroke-linejoin:round;stroke-miterlimit:2;"><rect id="Artboard1" x="0" y="0" width="747.6" height="147.12" style="fill:none;"/><g><rect x="127.748" y="14.78" width="26.035" height="115.656" style="fill:url(#_Linear1);fill-rule:nonzero;"/><path d="M214.866,130.437c-4.562,-9.68 -9.068,-19.749 -13.518,-30.208c-4.451,-10.458 -8.679,-20.806 -12.684,-31.042c-4.006,-10.236 -7.705,-20.027 -11.099,-29.373c-3.393,-9.346 -6.314,-17.69 -8.761,-25.034l28.705,0c2.225,6.676 4.645,13.88 7.26,21.613c2.615,7.733 5.285,15.437 8.011,23.114c2.726,7.677 5.368,15.021 7.927,22.03c2.559,7.01 4.951,13.073 7.176,18.191c2.114,-5.118 4.479,-11.181 7.093,-18.191c2.615,-7.009 5.285,-14.353 8.011,-22.03c2.726,-7.677 5.396,-15.381 8.011,-23.114c2.615,-7.733 5.035,-14.937 7.26,-21.613l27.704,0c-2.559,7.344 -5.508,15.688 -8.845,25.034c-3.338,9.346 -7.01,19.137 -11.015,29.373c-4.006,10.236 -8.234,20.584 -12.684,31.042c-4.451,10.459 -8.957,20.528 -13.518,30.208l-25.034,0Z" style="fill:url(#_Linear2);fill-rule:nonzero;"/><rect x="300.982" y="14.78" width="26.035" height="115.656" style="fill:url(#_Linear3);fill-rule:nonzero;"/><path d="M385.263,110.576c3.671,0 6.703,-0.306 9.095,-0.918c2.392,-0.611 4.312,-1.446 5.758,-2.503c1.447,-1.057 2.448,-2.309 3.004,-3.755c0.556,-1.446 0.835,-3.06 0.835,-4.84c0,-3.783 -1.781,-6.926 -5.341,-9.429c-3.56,-2.504 -9.68,-5.202 -18.358,-8.095c-3.783,-1.335 -7.566,-2.864 -11.349,-4.589c-3.783,-1.725 -7.176,-3.894 -10.18,-6.509c-3.004,-2.614 -5.452,-5.785 -7.343,-9.513c-1.892,-3.727 -2.838,-8.261 -2.838,-13.601c0,-5.341 1.002,-10.153 3.005,-14.437c2.002,-4.283 4.839,-7.927 8.511,-10.931c3.672,-3.004 8.122,-5.313 13.351,-6.926c5.23,-1.613 11.127,-2.42 17.691,-2.42c7.788,0 14.52,0.834 20.194,2.503c5.674,1.669 10.347,3.505 14.019,5.508l-7.51,20.528c-3.227,-1.669 -6.815,-3.144 -10.765,-4.423c-3.95,-1.28 -8.706,-1.919 -14.269,-1.919c-6.231,0 -10.709,0.862 -13.435,2.587c-2.726,1.724 -4.089,4.367 -4.089,7.927c0,2.114 0.501,3.894 1.502,5.34c1.002,1.447 2.42,2.754 4.256,3.922c1.836,1.169 3.95,2.226 6.342,3.171c2.392,0.946 5.034,1.92 7.927,2.921c6.008,2.225 11.238,4.423 15.688,6.592c4.451,2.17 8.15,4.701 11.098,7.594c2.949,2.893 5.146,6.286 6.593,10.18c1.446,3.894 2.169,8.623 2.169,14.186c0,10.792 -3.783,19.165 -11.348,25.117c-7.566,5.953 -18.97,8.929 -34.213,8.929c-5.118,0 -9.736,-0.306 -13.852,-0.918c-4.117,-0.612 -7.761,-1.363 -10.932,-2.253c-3.171,-0.89 -5.897,-1.836 -8.177,-2.837c-2.281,-1.001 -4.201,-1.947 -5.758,-2.837l7.343,-20.695c3.449,1.892 7.705,3.588 12.767,5.09c5.063,1.502 11.265,2.253 18.609,2.253Z" style="fill:url(#_Linear4);fill-rule:nonzero;"/><rect x="450.851" y="14.78" width="26.035" height="115.656" style="fill:url(#_Linear5);fill-rule:nonzero;"/><path d="M712.559,130.437c-7.455,-13.241 -15.521,-26.314 -24.199,-39.22c-8.679,-12.906 -17.914,-25.09 -27.705,-36.549l0,75.769l-25.701,0l0,-115.657l21.195,0c3.672,3.672 7.733,8.178 12.183,13.519c4.451,5.34 8.985,11.042 13.602,17.106c4.618,6.064 9.207,12.35 13.769,18.859c4.562,6.509 8.845,12.767 12.85,18.775l0,-68.259l25.869,0l0,115.657l-21.863,0Z" style="fill:url(#_Linear6);fill-rule:nonzero;"/><path d="M555.274,14.573c31.939,0 57.869,25.93 57.869,57.869c0,31.938 -25.93,57.868 -57.869,57.868c-31.938,0 -57.868,-25.93 -57.868,-57.868c0,-31.939 25.93,-57.869 57.868,-57.869Zm2.76,27.72c16.64,1.523 28.913,16.269 27.389,32.909c-1.523,16.639 -16.269,28.912 -32.909,27.388c-16.639,-1.523 -28.912,-16.269 -27.388,-32.908c1.523,-16.64 16.269,-28.913 32.908,-27.389Z" style="fill:url(#_Linear7);"/><path d="M38.903,16.249c4.444,-1.095 9.09,-1.676 13.871,-1.676c31.938,0 57.869,25.93 57.869,57.869c0,31.938 -25.931,57.868 -57.869,57.868c-15.537,0 -29.651,-6.135 -40.051,-16.114l19.097,-19.909c4.779,4.591 11.088,7.653 18.194,8.303c16.639,1.524 31.385,-10.749 32.909,-27.388c1.523,-16.64 -10.75,-31.386 -27.389,-32.909c-3.455,-0.317 -6.827,-0.038 -10.017,0.75l-6.614,-26.794Z" style="fill:url(#_Linear8);"/></g><defs><linearGradient id="_Linear1" x1="0" y1="0" x2="1" y2="0" gradientUnits="userSpaceOnUse" gradientTransform="matrix(634.56,1.11845,-1.11845,634.56,77.28,72.4415)"><stop offset="0" style="stop-color:#ab00ff;stop-opacity:1"/><stop offset="1" style="stop-color:#ffc300;stop-opacity:1"/></linearGradient><linearGradient id="_Linear2" x1="0" y1="0" x2="1" y2="0" gradientUnits="userSpaceOnUse" gradientTransform="matrix(634.56,1.11845,-1.11845,634.56,77.28,72.4415)"><stop offset="0" style="stop-color:#ab00ff;stop-opacity:1"/><stop offset="1" style="stop-color:#ffc300;stop-opacity:1"/></linearGradient><linearGradient id="_Linear3" x1="0" y1="0" x2="1" y2="0" gradientUnits="userSpaceOnUse" gradientTransform="matrix(634.56,1.11845,-1.11845,634.56,77.28,72.4415)"><stop offset="0" style="stop-color:#ab00ff;stop-opacity:1"/><stop offset="1" style="stop-color:#ffc300;stop-opacity:1"/></linearGradient><linearGradient id="_Linear4" x1="0" y1="0" x2="1" y2="0" gradientUnits="userSpaceOnUse" gradientTransform="matrix(634.56,1.11845,-1.11845,634.56,77.28,72.4415)"><stop offset="0" style="stop-color:#ab00ff;stop-opacity:1"/><stop offset="1" style="stop-color:#ffc300;stop-opacity:1"/></linearGradient><linearGradient id="_Linear5" x1="0" y1="0" x2="1" y2="0" gradientUnits="userSpaceOnUse" gradientTransform="matrix(634.56,1.11845,-1.11845,634.56,77.28,72.4415)"><stop offset="0" style="stop-color:#ab00ff;stop-opacity:1"/><stop offset="1" style="stop-color:#ffc300;stop-opacity:1"/></linearGradient><linearGradient id="_Linear6" x1="0" y1="0" x2="1" y2="0" gradientUnits="userSpaceOnUse" gradientTransform="matrix(634.56,1.11845,-1.11845,634.56,77.28,72.4415)"><stop offset="0" style="stop-color:#ab00ff;stop-opacity:1"/><stop offset="1" style="stop-color:#ffc300;stop-opacity:1"/></linearGradient><linearGradient id="_Linear7" x1="0" y1="0" x2="1" y2="0" gradientUnits="userSpaceOnUse" gradientTransform="matrix(634.56,1.11845,-1.11845,634.56,77.28,72.4415)"><stop offset="0" style="stop-color:#ab00ff;stop-opacity:1"/><stop offset="1" style="stop-color:#ffc300;stop-opacity:1"/></linearGradient><linearGradient id="_Linear8" x1="0" y1="0" x2="1" y2="0" gradientUnits="userSpaceOnUse" gradientTransform="matrix(634.56,1.11845,-1.11845,634.56,77.28,72.4415)"><stop offset="0" style="stop-color:#ab00ff;stop-opacity:1"/><stop offset="1" style="stop-color:#ffc300;stop-opacity:1"/></linearGradient></defs></svg>