<?xml version="1.0" encoding="UTF-8" standalone="no"?><!DOCTYPE svg PUBLIC "-//W3C//DTD SVG 1.1//EN" "http://www.w3.org/Graphics/SVG/1.1/DTD/svg11.dtd"><svg width="100%" height="100%" viewBox="0 0 756 148" version="1.1" xmlns="http://www.w3.org/2000/svg" xmlns:xlink="http://www.w3.org/1999/xlink" xml:space="preserve" xmlns:serif="http://www.serif.com/" style="fill-rule:evenodd;clip-rule:evenodd;stroke-linejoin:round;stroke-miterlimit:2;"><rect id="Artboard1" x="0" y="0" width="755.04" height="147.84" style="fill:none;"/><g><g><rect x="134.708" y="14.78" width="26.035" height="115.656" style="fill:url(#_Linear1);fill-rule:nonzero;"/><path d="M221.826,130.437c-4.562,-9.68 -9.068,-19.749 -13.518,-30.208c-4.451,-10.458 -8.679,-20.806 -12.684,-31.042c-4.006,-10.236 -7.705,-20.027 -11.099,-29.373c-3.393,-9.346 -6.314,-17.69 -8.761,-25.034l28.705,0c2.225,6.676 4.645,13.88 7.26,21.613c2.615,7.733 5.285,15.437 8.011,23.114c2.726,7.677 5.368,15.021 7.927,22.03c2.559,7.01 4.951,13.073 7.176,18.191c2.114,-5.118 4.479,-11.181 7.093,-18.191c2.615,-7.009 5.285,-14.353 8.011,-22.03c2.726,-7.677 5.396,-15.381 8.011,-23.114c2.615,-7.733 5.035,-14.937 7.26,-21.613l27.704,0c-2.559,7.344 -5.508,15.688 -8.845,25.034c-3.338,9.346 -7.01,19.137 -11.015,29.373c-4.006,10.236 -8.234,20.584 -12.684,31.042c-4.451,10.459 -8.957,20.528 -13.518,30.208l-25.034,0Z" style="fill:url(#_Linear2);fill-rule:nonzero;"/><rect x="307.942" y="14.78" width="26.035" height="115.656" style="fill:url(#_Linear3);fill-rule:nonzero;"/><path d="M392.223,110.576c3.671,0 6.703,-0.306 9.095,-0.918c2.392,-0.611 4.312,-1.446 5.758,-2.503c1.447,-1.057 2.448,-2.309 3.004,-3.755c0.556,-1.446 0.835,-3.06 0.835,-4.84c0,-3.783 -1.781,-6.926 -5.341,-9.429c-3.56,-2.504 -9.68,-5.202 -18.358,-8.095c-3.783,-1.335 -7.566,-2.864 -11.349,-4.589c-3.783,-1.725 -7.176,-3.894 -10.18,-6.509c-3.004,-2.614 -5.452,-5.785 -7.343,-9.513c-1.892,-3.727 -2.838,-8.261 -2.838,-13.601c0,-5.341 1.002,-10.153 3.005,-14.437c2.002,-4.283 4.839,-7.927 8.511,-10.931c3.672,-3.004 8.122,-5.313 13.351,-6.926c5.23,-1.613 11.127,-2.42 17.691,-2.42c7.788,0 14.52,0.834 20.194,2.503c5.674,1.669 10.347,3.505 14.019,5.508l-7.51,20.528c-3.227,-1.669 -6.815,-3.144 -10.765,-4.423c-3.95,-1.28 -8.706,-1.919 -14.269,-1.919c-6.231,0 -10.709,0.862 -13.435,2.587c-2.726,1.724 -4.089,4.367 -4.089,7.927c0,2.114 0.501,3.894 1.502,5.34c1.002,1.447 2.42,2.754 4.256,3.922c1.836,1.169 3.95,2.226 6.342,3.171c2.392,0.946 5.034,1.92 7.927,2.921c6.008,2.225 11.238,4.423 15.688,6.592c4.451,2.17 8.15,4.701 11.098,7.594c2.949,2.893 5.146,6.286 6.593,10.18c1.446,3.894 2.169,8.623 2.169,14.186c0,10.792 -3.783,19.165 -11.348,25.117c-7.566,5.953 -18.97,8.929 -34.213,8.929c-5.118,0 -9.736,-0.306 -13.852,-0.918c-4.117,-0.612 -7.761,-1.363 -10.932,-2.253c-3.171,-0.89 -5.897,-1.836 -8.177,-2.837c-2.281,-1.001 -4.201,-1.947 -5.758,-2.837l7.343,-20.695c3.449,1.892 7.705,3.588 12.767,5.09c5.063,1.502 11.265,2.253 18.609,2.253Z" style="fill:url(#_Linear4);fill-rule:nonzero;"/><rect x="457.811" y="14.78" width="26.035" height="115.656" style="fill:url(#_Linear5);fill-rule:nonzero;"/><path d="M532.412,72.525c0,5.674 0.696,10.792 2.086,15.354c1.391,4.562 3.394,8.484 6.008,11.766c2.615,3.282 5.814,5.813 9.597,7.594c3.783,1.78 8.122,2.67 13.017,2.67c4.785,0 9.096,-0.89 12.934,-2.67c3.839,-1.781 7.066,-4.312 9.68,-7.594c2.615,-3.282 4.618,-7.204 6.008,-11.766c1.391,-4.562 2.086,-9.68 2.086,-15.354c0,-5.674 -0.695,-10.82 -2.086,-15.438c-1.39,-4.617 -3.393,-8.567 -6.008,-11.849c-2.614,-3.282 -5.841,-5.813 -9.68,-7.593c-3.838,-1.781 -8.149,-2.671 -12.934,-2.671c-4.895,0 -9.234,0.918 -13.017,2.754c-3.783,1.836 -6.982,4.395 -9.597,7.677c-2.614,3.282 -4.617,7.232 -6.008,11.849c-1.39,4.618 -2.086,9.708 -2.086,15.271Zm88.286,0c0,9.902 -1.474,18.608 -4.423,26.119c-2.948,7.51 -6.981,13.796 -12.099,18.858c-5.118,5.063 -11.21,8.874 -18.275,11.433c-7.065,2.559 -14.659,3.838 -22.781,3.838c-7.899,0 -15.354,-1.279 -22.363,-3.838c-7.01,-2.559 -13.129,-6.37 -18.358,-11.433c-5.23,-5.062 -9.346,-11.348 -12.35,-18.858c-3.004,-7.511 -4.507,-16.217 -4.507,-26.119c0,-9.902 1.558,-18.608 4.673,-26.119c3.116,-7.51 7.316,-13.824 12.601,-18.942c5.285,-5.118 11.404,-8.956 18.358,-11.515c6.954,-2.559 14.269,-3.839 21.946,-3.839c7.9,0 15.354,1.28 22.364,3.839c7.009,2.559 13.129,6.397 18.358,11.515c5.229,5.118 9.346,11.432 12.35,18.942c3.004,7.511 4.506,16.217 4.506,26.119Z" style="fill:url(#_Linear6);fill-rule:nonzero;"/><path d="M719.999,130.437c-7.455,-13.241 -15.521,-26.314 -24.199,-39.22c-8.679,-12.906 -17.914,-25.09 -27.705,-36.549l0,75.769l-25.701,0l0,-115.657l21.195,0c3.672,3.672 7.733,8.178 12.183,13.519c4.451,5.34 8.985,11.042 13.602,17.106c4.618,6.064 9.207,12.35 13.769,18.859c4.562,6.509 8.845,12.767 12.85,18.775l0,-68.259l25.869,0l0,115.657l-21.863,0Z" style="fill:url(#_Linear7);fill-rule:nonzero;"/></g><path d="M59.494,14.573c31.939,0 57.869,25.93 57.869,57.869c0,31.938 -25.931,57.868 -57.869,57.868c-8.467,0 -16.512,-1.822 -23.763,-5.095l11.33,-25.163c2.982,1.344 6.234,2.224 9.673,2.538c16.639,1.524 31.385,-10.749 32.909,-27.388c1.523,-16.64 -10.75,-31.386 -27.389,-32.909c-0.927,-0.085 -1.847,-0.127 -2.76,-0.128l0,-27.592Z" style="fill:url(#_Linear8);"/></g><path d="M54.913,23.182l0,11.005c-18.467,2.193 -33.146,17.547 -33.912,36.716c-0.574,14.358 6.804,27.206 18.206,34.289l-4.525,10.047c-14.739,-8.57 -24.657,-24.534 -24.657,-42.797c0,-25.759 19.729,-46.945 44.888,-49.26Z" style="fill-opacity:0.28;"/><defs><linearGradient id="_Linear1" x1="0" y1="0" x2="1" y2="0" gradientUnits="userSpaceOnUse" gradientTransform="matrix(706.131,0,0,120.663,35.7307,72.4415)"><stop offset="0" style="stop-color:#8900ff;stop-opacity:1"/><stop offset="0.26" style="stop-color:#e333b6;stop-opacity:1"/><stop offset="1" style="stop-color:#ffc500;stop-opacity:1"/></linearGradient><linearGradient id="_Linear2" x1="0" y1="0" x2="1" y2="0" gradientUnits="userSpaceOnUse" gradientTransform="matrix(706.131,0,0,120.663,35.7307,72.4415)"><stop offset="0" style="stop-color:#8900ff;stop-opacity:1"/><stop offset="0.26" style="stop-color:#e333b6;stop-opacity:1"/><stop offset="1" style="stop-color:#ffc500;stop-opacity:1"/></linearGradient><linearGradient id="_Linear3" x1="0" y1="0" x2="1" y2="0" gradientUnits="userSpaceOnUse" gradientTransform="matrix(706.131,0,0,120.663,35.7307,72.4415)"><stop offset="0" style="stop-color:#8900ff;stop-opacity:1"/><stop offset="0.26" style="stop-color:#e333b6;stop-opacity:1"/><stop offset="1" style="stop-color:#ffc500;stop-opacity:1"/></linearGradient><linearGradient id="_Linear4" x1="0" y1="0" x2="1" y2="0" gradientUnits="userSpaceOnUse" gradientTransform="matrix(706.131,0,0,120.663,35.7307,72.4415)"><stop offset="0" style="stop-color:#8900ff;stop-opacity:1"/><stop offset="0.26" style="stop-color:#e333b6;stop-opacity:1"/><stop offset="1" style="stop-color:#ffc500;stop-opacity:1"/></linearGradient><linearGradient id="_Linear5" x1="0" y1="0" x2="1" y2="0" gradientUnits="userSpaceOnUse" gradientTransform="matrix(706.131,0,0,120.663,35.7307,72.4415)"><stop offset="0" style="stop-color:#8900ff;stop-opacity:1"/><stop offset="0.26" style="stop-color:#e333b6;stop-opacity:1"/><stop offset="1" style="stop-color:#ffc500;stop-opacity:1"/></linearGradient><linearGradient id="_Linear6" x1="0" y1="0" x2="1" y2="0" gradientUnits="userSpaceOnUse" gradientTransform="matrix(706.131,0,0,120.663,35.7307,72.4415)"><stop offset="0" style="stop-color:#8900ff;stop-opacity:1"/><stop offset="0.26" style="stop-color:#e333b6;stop-opacity:1"/><stop offset="1" style="stop-color:#ffc500;stop-opacity:1"/></linearGradient><linearGradient id="_Linear7" x1="0" y1="0" x2="1" y2="0" gradientUnits="userSpaceOnUse" gradientTransform="matrix(706.131,0,0,120.663,35.7307,72.4415)"><stop offset="0" style="stop-color:#8900ff;stop-opacity:1"/><stop offset="0.26" style="stop-color:#e333b6;stop-opacity:1"/><stop offset="1" style="stop-color:#ffc500;stop-opacity:1"/></linearGradient><linearGradient id="_Linear8" x1="0" y1="0" x2="1" y2="0" gradientUnits="userSpaceOnUse" gradientTransform="matrix(706.131,0,0,120.663,35.7307,72.4415)"><stop offset="0" style="stop-color:#8900ff;stop-opacity:1"/><stop offset="0.26" style="stop-color:#e333b6;stop-opacity:1"/><stop offset="1" style="stop-color:#ffc500;stop-opacity:1"/></linearGradient></defs></svg>